<?xml version="1.0" standalone="no"?>
<!DOCTYPE svg PUBLIC "-//W3C//DTD SVG 20010904//EN"
 "http://www.w3.org/TR/2001/REC-SVG-20010904/DTD/svg10.dtd">
<svg version="1.0" xmlns="http://www.w3.org/2000/svg"
 width="236.000000pt" height="202.000000pt" viewBox="0 0 236.000000 202.000000"
 preserveAspectRatio="xMidYMid meet">
<metadata>
Created by potrace 1.16, written by Peter Selinger 2001-2019
</metadata>
<g transform="translate(0.000000,202.000000) scale(0.100000,-0.100000)"
fill="none" stroke="#FFFFFF">
<path fill="#FFFFFF" d="M0 1010 l0 -1010 1180 0 1180 0 0 1010 0 1010 -1180 0 -1180 0 0
-1010z m1530 826 c193 -26 355 -83 496 -174 69 -45 107 -81 178 -171 120 -153
121 -382 3 -593 -74 -132 -286 -291 -484 -363 -91 -34 -213 -56 -353 -63
l-115 -7 -3 -178 -2 -177 -28 -1 c-15 -1 -65 -3 -112 -4 -47 -2 -92 -2 -101 1
-15 4 -17 55 -24 487 -4 265 -9 484 -11 486 -2 2 -10 1 -19 -2 -13 -6 -15 -63
-15 -487 l0 -480 -22 -1 c-13 0 -68 -2 -122 -4 -122 -5 -138 2 -136 58 1 23 1
121 1 218 l-1 177 -32 12 c-33 13 -62 25 -172 74 l-58 26 7 37 c3 21 12 47 19
58 6 11 24 54 40 95 74 199 72 197 136 151 24 -17 48 -30 53 -28 5 1 10 64 11
142 l1 139 79 39 c119 58 172 69 343 74 147 5 151 5 163 -16 8 -16 10 -96 6
-287 -5 -222 -4 -266 8 -270 30 -11 181 42 276 97 42 24 120 112 142 159 38
86 11 203 -67 283 -37 38 -129 101 -174 119 -101 40 -279 48 -428 19 -160 -31
-280 -75 -497 -183 -75 -37 -85 -39 -141 -34 -141 14 -320 46 -334 61 -14 13
-12 18 19 48 190 179 415 308 705 402 201 65 534 91 765 61z"/>
</g>
</svg>
