<svg id="visual" viewBox="0 0 3000 600" width="3000" height="600" xmlns="http://www.w3.org/2000/svg" xmlns:xlink="http://www.w3.org/1999/xlink" version="1.1"><path d="M0 510L45.5 497.3C91 484.7 182 459.3 272.8 442.5C363.7 425.7 454.3 417.3 545.2 418.8C636 420.3 727 431.7 818 438.3C909 445 1000 447 1091 453.7C1182 460.3 1273 471.7 1363.8 461.3C1454.7 451 1545.3 419 1636.2 406.8C1727 394.7 1818 402.3 1909 411.2C2000 420 2091 430 2182 426.8C2273 423.7 2364 407.3 2454.8 404.3C2545.7 401.3 2636.3 411.7 2727.2 415.5C2818 419.3 2909 416.7 2954.5 415.3L3000 414" fill="none" stroke-linecap="round" stroke-linejoin="miter" stroke="#0066FF" stroke-width="21"></path></svg>